<?xml version="1.0" encoding="utf-8"?>
<!-- Generator: Adobe Illustrator 16.0.0, SVG Export Plug-In . SVG Version: 6.00 Build 0)  -->
<!DOCTYPE svg PUBLIC "-//W3C//DTD SVG 1.1//EN" "http://www.w3.org/Graphics/SVG/1.1/DTD/svg11.dtd">
<svg version="1.1" id="Layer_1" xmlns="http://www.w3.org/2000/svg" xmlns:xlink="http://www.w3.org/1999/xlink" x="0px" y="0px"
	 width="400px" height="400px" viewBox="0 0 400 400" enable-background="new 0 0 400 400" xml:space="preserve">
<path fill="#FFFFFF" d="M199.903,2.807C91.05,2.807,2.807,91.05,2.807,199.903S91.05,397,199.903,397S397,308.757,397,199.903
	S308.757,2.807,199.903,2.807z M199.903,394.044c-107.049,0-194.14-87.092-194.14-194.141c0-107.049,87.091-194.14,194.14-194.14
	c107.049,0,194.141,87.091,194.141,194.14C394.044,306.952,306.952,394.044,199.903,394.044z"/>
<path fill="#FFFFFF" d="M199.903,49.601c-83.01,0-150.303,67.292-150.303,150.303c0,83.01,67.292,150.303,150.303,150.303
	c83.01,0,150.303-67.293,150.303-150.303C350.206,116.893,282.913,49.601,199.903,49.601z M199.903,347.249
	c-81.247,0-147.346-66.1-147.346-147.346c0-81.247,66.099-147.346,147.346-147.346c81.246,0,147.346,66.099,147.346,147.346
	C347.249,281.149,281.149,347.249,199.903,347.249z"/>
<path fill="#FFFFFF" d="M199.903,55.514c-79.617,0-144.39,64.773-144.39,144.39c0,79.616,64.773,144.39,144.39,144.39
	c79.616,0,144.39-64.773,144.39-144.39C344.293,120.287,279.52,55.514,199.903,55.514z M199.903,341.337
	c-77.986,0-141.433-63.446-141.433-141.434c0-77.986,63.447-141.433,141.433-141.433c77.987,0,141.434,63.447,141.434,141.433
	C341.337,277.891,277.891,341.337,199.903,341.337z"/>
<path fill="#FFFFFF" d="M210.68,273.91c-40.258,18.197-62.399,34.924-74.368,46.743c19.001,10.051,40.64,15.756,63.592,15.756
	c45.799,0,86.393-22.678,111.164-57.388C299.591,256.732,275.995,244.386,210.68,273.91z M199.903,333.453
	c-20.254,0-40.4-4.672-58.529-13.541c11.78-10.851,33.124-26.402,70.523-43.309c25.169-11.376,45.749-17.145,61.166-17.145
	c16.152,0,27.169,6.151,34.524,19.327C282.419,313.05,242.303,333.453,199.903,333.453z"/>
<path fill="#FFFFFF" d="M71.617,153.242c11.724-3.78,30.488-13.217,58.953-35.738c22.879-18.102,36.108-36.301,43.75-51.692
	C126.771,74.865,87.884,108.656,71.617,153.242z M128.735,115.186c-24.147,19.105-40.983,28.445-51.951,32.99
	c16.462-39.018,50.865-68.259,91.951-78.138C159.61,86.22,146.179,101.384,128.735,115.186z"/>
<path fill="#FFFFFF" d="M295.241,249.75c0,0,13.652,6.2,22.945,18.196c5.722-9.905,10.235-20.59,13.337-31.855
	C322.602,239.051,303.805,245.469,295.241,249.75z M317.687,262.765c-5.406-5.941-11.522-10.201-15.799-12.775
	c7.481-3.141,17.847-6.789,25.173-9.28C324.613,248.313,321.474,255.699,317.687,262.765z"/>
<path fill="#FFFFFF" d="M92.486,229.468c-1.983-3.682-15.528-4.271-26.686-4.105c3.008,15.876,8.773,30.783,16.779,44.212
	C101.357,247.833,95.458,234.989,92.486,229.468z M69.413,228.295c18.077,0.032,20.424,2.539,20.516,2.646
	c2.166,4.036,7.842,14.575-6.917,33.456C76.722,253.051,72.159,240.938,69.413,228.295z"/>
<path fill="#FFFFFF" d="M322.596,214.686c-1.478-1.479-18.724-14.782-38.434-14.782c-19.709,0-43.854,17.246-99.534,36.188
	c-55.68,18.941-57.155-4.889-56.173-17.463c0.884-11.31,1.124-13.9-4.502-19.371c-3.135-3.049-7.816-0.339-17.671-7.73
	c-2.399-1.799-3.624-4.997-4.113-8.796c-15.872,11.796-28.643,19.022-38.623,23.402c0.103,2.272,0.283,4.523,0.498,6.766
	c12.75-1.203,30.638-0.692,34.214,3.48c5.913,6.897,9.749,8.958,4.247,34.03c-3.879,17.674-21.724,52.97,30.386,55.434
	c0.395,0.019,0.762,0.093,1.143,0.139c16.811-11.82,40.829-26.192,73.469-40.337c46.004-19.936,75.821-26.921,98.94-29.328
	c0.13-0.075,0.247-0.149,0.386-0.226C328.017,224.482,324.074,216.164,322.596,214.686z M320.834,219.247
	c-0.444,2.404-3.028,7.438-15.323,14.194c-28.224,3.028-59.765,12.408-99.185,29.49c-27.613,11.967-52.185,25.412-73.054,39.974
	c-0.081-0.007-0.163-0.013-0.245-0.016c-15.283-0.724-25.436-4.433-30.175-11.026c-6.394-8.896-2.58-22.292,0.483-33.056
	c0.791-2.778,1.538-5.402,2.056-7.764c5.215-23.762,2.468-28.206-3.729-35.259c-0.376-0.427-0.763-0.867-1.16-1.33
	c-2.89-3.372-11.007-5.08-24.128-5.08c-3.205,0-6.488,0.115-9.643,0.337c-0.046-0.591-0.087-1.16-0.123-1.713
	c10.264-4.704,21.571-11.496,33.686-20.232c0.929,2.667,2.338,4.718,4.214,6.125c6.446,4.835,11.068,5.749,14.127,6.354
	c1.775,0.352,2.656,0.546,3.256,1.131c4.597,4.469,4.487,5.875,3.633,16.812l-0.017,0.209c-0.465,5.948-0.424,14.57,5.277,20.733
	c4.278,4.625,10.981,6.97,19.921,6.97c0.002,0,0.003,0,0.005,0c9.075-0.001,20.806-2.427,34.868-7.211
	c24.61-8.372,42.962-16.359,57.708-22.777c18.336-7.98,30.449-13.253,40.873-13.253c17.988,0,34.478,12.093,36.346,13.919v-0.001
	C320.504,216.777,321.143,217.579,320.834,219.247z"/>
<path fill="#FFFFFF" d="M199.903,63.397c-4.572,0-9.089,0.234-13.545,0.678c-6.097,11.907-19.306,28.896-49.061,55.685
	c-27.205,24.494-51.874,37.153-68.936,43.632c-2.924,10.518-4.62,21.542-4.916,32.908c20.562-10.304,49.475-30.157,88.105-67.988
	c31.627-30.973,60.121-49.223,84.805-59.965C224.748,65.127,212.523,63.397,199.903,63.397z M149.482,126.2
	c-30.909,30.27-58.755,52.15-82.853,65.114c0.557-8.696,1.961-17.314,4.192-25.701c16.418-6.409,41.197-19.115,68.454-43.656
	c25.082-22.582,41.119-40.626,48.952-55.088c3.899-0.342,7.82-0.516,11.676-0.516c9.269,0,18.487,0.958,27.508,2.856
	C201.461,81.793,175.285,100.932,149.482,126.2z"/>
<path fill="#FFFFFF" d="M329.806,157.976c-11.267,15.319-29.711,31.087-29.711,31.087c18.233,4.705,29.212,13.885,35.794,22.592
	c0.333-3.876,0.521-7.792,0.521-11.752C336.409,185.279,334.088,171.19,329.806,157.976z M333.378,204.207
	c-7.203-7.383-16.354-12.906-27.318-16.484c5.291-4.81,14.779-13.834,22.565-23.404c3.206,11.555,4.828,23.499,4.828,35.584
	C333.453,201.314,333.428,202.751,333.378,204.207z"/>
<path fill="#FFFFFF" d="M318.252,144.388c-5.675-9.855-8.631-8.541-21.442-8.541c-12.811,0-29.235,1.314-45.004,11.826
	c-15.768,10.512-30.543,24.277-49.931,24.637c-17.739,0.329-38.885-19.067-23.323-19.067c11.497,0,7.555-16.081,1.971-20.023
	c-3.729-2.632-1.643-10.183,4.927-8.87c6.57,1.314,19.052,7.884,19.052,20.695c0,8.113-12.153,8.197-6.897,16.753
	c3.405,5.541,16.096,0.656,23.651-6.57c7.555-7.226,30.84-30.625,92.102-31.083c-14.682-21.918-35.514-39.384-60.039-49.853
	c-27.079,7.043-60.143,23.589-95.409,59.107c-21.294,21.446-39.445,37.123-54.756,48.592c7.793-0.368,19.799,0.326,26.125,7.072
	c9.854,10.511,6.842,19.709,7.034,27.593c0.193,7.884,0.269,24.31,38.008,12.483c34.323-10.756,129.261-44.335,144.189-74.544
	C319.663,150.878,319.897,147.246,318.252,144.388z M315.754,153.494c-13.439,26.487-95.712,58.22-142.318,72.825
	c-8.495,2.661-15.544,4.011-20.949,4.011c0,0,0,0,0,0c-12.888,0-13.069-7.511-13.214-13.547l-0.005-0.199
	c-0.035-1.423,0.046-2.934,0.131-4.534c0.37-6.963,0.831-15.628-7.964-25.009c-4.969-5.299-12.778-7.278-19.76-7.871
	c15.095-11.889,31.318-26.552,48.333-43.688c29.777-29.99,61.086-49.523,93.078-58.071c21.816,9.506,40.603,24.601,54.673,43.884
	c-57.246,1.78-80.367,23.953-88.125,31.393l-0.42,0.403c-4.853,4.641-11.906,8.141-16.407,8.141c-1.38,0-2.282-0.331-2.683-0.982
	c-1.569-2.556-1.136-3.036,1.744-5.493c2.359-2.014,5.592-4.771,5.592-9.713c0-14.067-13.144-21.938-21.429-23.594
	c-0.695-0.139-1.386-0.209-2.052-0.209c-3.68,0-6.763,2.223-7.855,5.663c-1.059,3.337,0.024,6.845,2.694,8.73
	c2.638,1.861,5.083,8.306,3.878,12.102c-0.376,1.187-1.188,2.549-4.144,2.549c-3.863,0-6.447,1.083-7.68,3.218
	c-0.753,1.304-1.279,3.502,0.492,6.569c4.059,7.029,18.075,15.199,30.063,15.198l0.503-0.005
	c16.587-0.307,29.809-9.758,42.594-18.899c2.92-2.087,5.939-4.245,8.922-6.234c15.063-10.042,31.087-11.329,43.364-11.329
	c1.474,0,2.818-0.017,4.051-0.033c1.024-0.013,1.969-0.025,2.849-0.025c6.248,0,8.045,0.282,11.98,7.118
	C316.716,147.646,316.737,150.211,315.754,153.494z"/>
<g>
	<g>
		<path fill="#FFFFFF" d="M98.012,322.345c-1.893-1.581-3.846-2.418-5.857-2.512c-2.013-0.095-4.087,0.6-6.224,2.085l2.539,3.978
			c1.375-1.043,2.656-1.581,3.84-1.614c1.184-0.032,2.25,0.348,3.195,1.138c1.285,1.073,1.932,2.416,1.944,4.033
			c0.012,1.616-0.914,3.54-2.776,5.771c-1.755,2.101-3.433,3.282-5.03,3.54c-1.598,0.26-3.051-0.158-4.358-1.249
			c-0.947-0.791-1.53-1.728-1.75-2.81s-0.052-2.169,0.503-3.256l-4.229-2.103c-0.778,1.747-1.081,3.332-0.908,4.757
			c0.283,2.4,1.503,4.502,3.661,6.305c2.471,2.063,5.143,2.915,8.016,2.558c2.872-0.359,5.535-2.007,7.987-4.942
			c2.318-2.776,3.391-5.594,3.219-8.453C101.612,326.708,100.354,324.301,98.012,322.345z M84.116,314.003
			c0.221-2.893-0.803-5.618-3.071-8.174c-2.241-2.525-4.814-3.847-7.72-3.965c-2.907-0.118-5.747,1.055-8.522,3.518
			c-2.799,2.483-4.31,5.182-4.532,8.098c-0.222,2.914,0.791,5.639,3.038,8.172c1.242,1.398,2.564,2.434,3.969,3.102
			c1.05,0.507,2.224,0.79,3.519,0.849c1.296,0.059,2.556-0.104,3.778-0.491c1.653-0.53,3.355-1.573,5.106-3.126
			C82.417,319.556,83.896,316.895,84.116,314.003z M79.62,313.234c-0.207,1.791-1.284,3.55-3.23,5.277
			c-1.978,1.754-3.846,2.629-5.604,2.624c-1.758-0.005-3.272-0.722-4.542-2.152c-1.269-1.431-1.802-3.01-1.6-4.733
			s1.29-3.46,3.259-5.208c1.994-1.77,3.883-2.651,5.667-2.648c1.784,0.003,3.291,0.696,4.518,2.079
			C79.316,309.856,79.827,311.445,79.62,313.234z M62.313,281.148l-3.224,2.144l6.393,9.606l-15.753,10.484l2.571,3.863
			l18.977-12.63L62.313,281.148z M53.412,263.665l-3.461,1.737l5.172,10.314l-16.916,8.482l2.08,4.148l20.378-10.219L53.412,263.665
			z M46.372,244.071l-3.656,1.276l4.233,12.121l-5.905,2.063l-3.804-10.894l-3.656,1.276l3.804,10.894l-4.811,1.68l-4.088-11.707
			l-3.67,1.281l5.618,16.09l21.699-7.577L46.372,244.071z M34.061,243.247c2.166-0.417,4.085-1.245,5.756-2.482
			c1.672-1.237,2.835-2.829,3.487-4.774c0.653-1.945,0.751-4.1,0.296-6.46c-0.357-1.857-1.063-3.624-2.115-5.3
			c-1.052-1.677-2.131-2.903-3.239-3.679l-8.991,1.73l1.892,9.822l3.802-0.732l-1.005-5.219l2.864-0.552
			c0.666,0.586,1.278,1.32,1.838,2.208c0.56,0.889,0.932,1.81,1.115,2.764c0.372,1.93,0.003,3.619-1.107,5.066
			c-1.11,1.449-3.004,2.431-5.684,2.948c-2.483,0.477-4.47,0.251-5.958-0.682c-1.489-0.931-2.425-2.393-2.809-4.385
			c-0.253-1.313-0.144-2.471,0.329-3.472c0.473-1.002,1.231-1.768,2.279-2.3l-1.719-4.361c-1.986,0.851-3.415,2.177-4.287,3.978
			c-0.872,1.803-1.037,4.104-0.498,6.906c0.415,2.154,1.137,3.883,2.165,5.187c1.34,1.712,3.02,2.884,5.036,3.517
			C29.527,243.609,31.71,243.698,34.061,243.247z M40.207,198.188l-3.869,0.178l0.589,12.827l-6.25,0.286l-0.529-11.526
			l-3.868,0.178l0.53,11.526l-5.09,0.233l-0.569-12.389l-3.884,0.18l0.782,17.023l22.959-1.055L40.207,198.188z M20.959,179.986
			c0.783,1.034,1.712,1.899,2.79,2.594c1.464,0.933,3.353,1.577,5.667,1.932c3.616,0.556,6.607-0.005,8.975-1.682
			c2.367-1.677,3.811-4.205,4.329-7.583c0.513-3.336-0.114-6.161-1.878-8.474c-1.765-2.311-4.481-3.749-8.149-4.312
			c-3.698-0.568-6.74-0.007-9.125,1.683c-2.385,1.691-3.835,4.209-4.349,7.556c-0.284,1.85-0.235,3.528,0.146,5.035
			C19.646,177.868,20.177,178.951,20.959,179.986z M23.146,172.256c0.291-1.891,1.164-3.308,2.62-4.253
			c1.457-0.944,3.487-1.217,6.091-0.817c2.634,0.405,4.519,1.295,5.657,2.67c1.137,1.374,1.565,2.977,1.284,4.805
			c-0.281,1.829-1.176,3.235-2.687,4.219c-1.51,0.984-3.551,1.279-6.123,0.884c-2.614-0.401-4.48-1.28-5.599-2.637
			C23.27,175.771,22.855,174.146,23.146,172.256z M46.429,156.207l-9.353-2.816l2.767-9.188l-3.723-1.121l-2.767,9.188l-5.208-1.568
			l3.204-10.644l-3.723-1.121l-4.542,15.087l22.007,6.626L46.429,156.207z M39.194,126.248c1.616,0.835,3.309,0.917,5.081,0.244
			c1.259-0.479,2.735-1.681,4.425-3.608c1.315-1.497,2.181-2.443,2.597-2.839c0.616-0.576,1.166-0.918,1.651-1.026
			c0.486-0.108,0.97-0.037,1.453,0.213c0.752,0.389,1.234,1.065,1.449,2.028c0.213,0.963-0.022,2.109-0.709,3.437
			c-0.648,1.253-1.478,2.086-2.491,2.497c-1.013,0.412-2.255,0.391-3.726-0.063l-1.684,4.212c2.423,0.912,4.589,0.985,6.498,0.218
			c1.908-0.766,3.529-2.44,4.864-5.021c0.916-1.773,1.434-3.382,1.552-4.828c0.118-1.445-0.167-2.756-0.852-3.934
			s-1.613-2.069-2.783-2.675c-1.29-0.667-2.515-0.956-3.673-0.867c-1.158,0.09-2.238,0.484-3.241,1.184
			c-1.002,0.7-2.259,1.93-3.77,3.689c-1.51,1.761-2.618,2.789-3.323,3.083c-0.555,0.231-1.073,0.222-1.556-0.028
			c-0.53-0.273-0.839-0.71-0.929-1.31c-0.142-0.932,0.097-1.998,0.716-3.195c0.6-1.16,1.28-1.912,2.04-2.254
			c0.759-0.343,1.709-0.332,2.85,0.035l1.95-4.216c-1.909-0.904-3.76-1-5.553-0.285c-1.793,0.714-3.352,2.353-4.676,4.916
			c-0.812,1.569-1.268,3.03-1.368,4.385s0.151,2.561,0.751,3.618C37.334,124.913,38.155,125.71,39.194,126.248z M50.509,104.641
			c0.883,1.495,2.276,2.924,4.18,4.289c2.973,2.131,5.895,2.984,8.765,2.559c2.87-0.424,5.301-2.026,7.292-4.803
			c1.966-2.744,2.686-5.546,2.158-8.407c-0.528-2.86-2.299-5.371-5.315-7.534c-3.042-2.179-6.008-3.055-8.9-2.626
			c-2.892,0.428-5.324,2.018-7.297,4.771c-1.09,1.521-1.806,3.041-2.147,4.557c-0.262,1.137-0.278,2.344-0.049,3.621
			S49.863,103.534,50.509,104.641z M54.642,95.162c1.115-1.555,2.535-2.423,4.261-2.607c1.727-0.184,3.659,0.492,5.801,2.026
			c2.166,1.553,3.445,3.199,3.837,4.939c0.392,1.741,0.049,3.363-1.029,4.866c-1.078,1.504-2.513,2.354-4.305,2.548
			c-1.792,0.194-3.746-0.467-5.861-1.983c-2.149-1.541-3.416-3.168-3.8-4.885C53.163,98.352,53.528,96.716,54.642,95.162z
			 M78.89,91.27c2.865,0.045,5.361-1.026,7.489-3.214c1.719-1.768,2.702-3.652,2.948-5.651c0.245-1.998-0.291-4.12-1.608-6.363
			l-4.159,2.23c0.937,1.451,1.376,2.768,1.319,3.951c-0.058,1.183-0.517,2.217-1.376,3.101c-1.167,1.199-2.556,1.743-4.168,1.633
			c-1.613-0.111-3.46-1.179-5.543-3.205c-1.963-1.909-3.014-3.669-3.151-5.284c-0.137-1.613,0.389-3.029,1.576-4.251
			c0.859-0.884,1.837-1.395,2.933-1.532c1.096-0.138,2.166,0.112,3.209,0.747l2.416-4.058c-1.683-0.908-3.241-1.33-4.674-1.265
			c-2.416,0.101-4.603,1.158-6.563,3.173c-2.244,2.309-3.297,4.908-3.156,7.8c0.14,2.892,1.582,5.671,4.324,8.338
			C73.297,89.942,76.025,91.225,78.89,91.27z M99.377,75.609L84.573,58.028l-3.55,2.989l14.804,17.581L99.377,75.609z
			 M95.167,49.958l5.593,24.023l4.063-2.781l-1.383-5.38l7.582-5.188l4.605,3.175l4.165-2.851L99.216,47.187L95.167,49.958z
			 M107.604,58.278l-5.174,3.542l-2.255-8.792L107.604,58.278z M124.589,54.314l-8.511-16.901l-4.145,2.087l10.253,20.36
			l14.451-7.278l-1.742-3.458L124.589,54.314z M160.535,33.722c-0.864-0.775-1.896-1.284-3.094-1.527
			c-1.199-0.242-2.956-0.301-5.272-0.177s-3.824,0.033-4.524-0.274c-0.551-0.241-0.902-0.623-1.055-1.145
			c-0.168-0.572-0.066-1.097,0.305-1.577c0.577-0.746,1.512-1.309,2.806-1.688c1.253-0.368,2.266-0.395,3.039-0.082
			c0.772,0.312,1.42,1.007,1.943,2.084l4.396-1.501c-0.665-2.005-1.875-3.409-3.629-4.213c-1.755-0.803-4.017-0.799-6.785,0.013
			c-1.695,0.498-3.067,1.177-4.115,2.04c-1.048,0.863-1.748,1.877-2.098,3.042s-0.36,2.309-0.031,3.432
			c0.512,1.745,1.623,3.026,3.333,3.842c1.216,0.581,3.104,0.816,5.664,0.708c1.991-0.083,3.274-0.11,3.848-0.083
			c0.841,0.047,1.469,0.208,1.882,0.485c0.413,0.277,0.697,0.676,0.849,1.197c0.238,0.813,0.083,1.629-0.466,2.448
			c-0.549,0.821-1.541,1.44-2.975,1.861c-1.354,0.397-2.529,0.372-3.527-0.076c-0.997-0.448-1.84-1.361-2.527-2.739l-4.208,1.692
			c1.013,2.381,2.457,3.999,4.33,4.849c1.872,0.851,4.202,0.867,6.99,0.048c1.916-0.561,3.437-1.298,4.563-2.211
			c1.127-0.913,1.879-2.024,2.257-3.333c0.378-1.31,0.383-2.596,0.012-3.86C162.036,35.583,161.399,34.498,160.535,33.722z
			 M180.141,36.002c-0.766,0.904-1.759,1.445-2.979,1.624c-1.655,0.241-3.089-0.171-4.302-1.241
			c-1.213-1.068-2.029-3.041-2.451-5.916c-0.396-2.709-0.158-4.746,0.714-6.109c0.873-1.363,2.151-2.168,3.837-2.415
			c1.221-0.179,2.307,0.011,3.26,0.568c0.953,0.558,1.65,1.406,2.093,2.546l4.386-1.751c-0.784-1.744-1.763-3.027-2.94-3.848
			c-1.979-1.39-4.359-1.882-7.139-1.474c-3.186,0.466-5.603,1.889-7.251,4.27c-1.648,2.38-2.194,5.463-1.641,9.248
			c0.524,3.578,1.909,6.257,4.155,8.035c2.247,1.779,4.878,2.447,7.898,2.005c2.441-0.357,4.368-1.254,5.779-2.691
			c1.411-1.437,2.276-3.447,2.595-6.029l-4.658-0.76C181.358,33.785,180.905,35.097,180.141,36.002z M189.984,16.83l1.05,22.959
			l4.636-0.212l-1.051-22.96L189.984,16.83z M200.086,39.302l17.462,0.826l0.183-3.868l-12.824-0.607l0.295-6.249l11.525,0.545
			l0.184-3.868l-11.525-0.545l0.24-5.089l12.387,0.586l0.184-3.884l-17.021-0.806L200.086,39.302z M236.641,35.659l-6.404-16.825
			l-4.438-0.835l-4.252,22.586l4.236,0.798l2.773-14.729l6.332,16.443l4.574,0.862l4.256-22.586l-4.237-0.799L236.641,35.659z
			 M257.859,44.875c-1.096,0.452-2.227,0.477-3.393,0.075c-1.581-0.544-2.665-1.57-3.251-3.076
			c-0.588-1.506-0.408-3.633,0.539-6.381c0.892-2.588,2.038-4.289,3.439-5.099c1.401-0.811,2.906-0.939,4.518-0.385
			c1.167,0.402,2.045,1.07,2.636,2.003c0.59,0.933,0.82,2.007,0.689,3.222l4.701,0.458c0.104-1.91-0.178-3.5-0.846-4.769
			c-1.119-2.143-3.008-3.672-5.666-4.588c-3.043-1.048-5.844-0.894-8.402,0.464c-2.555,1.358-4.457,3.845-5.702,7.462
			c-1.179,3.42-1.179,6.435,0.001,9.046c1.179,2.611,3.211,4.414,6.097,5.408c2.331,0.803,4.454,0.89,6.368,0.262
			c1.913-0.628,3.605-2.017,5.074-4.164L260.873,42C259.958,43.465,258.953,44.424,257.859,44.875z M278.858,38.236l11.045,5.637
			l1.769-3.463l-15.18-7.747l-10.447,20.473l15.57,7.945l1.761-3.449l-11.438-5.836l2.845-5.572l10.278,5.245l1.76-3.449
			l-10.278-5.245L278.858,38.236z M303.184,67.609c0.827-1.195,1.271-2.372,1.33-3.531c0.059-1.161-0.193-2.283-0.758-3.367
			c-0.566-1.084-1.626-2.488-3.18-4.211c-1.552-1.723-2.43-2.953-2.632-3.689c-0.158-0.58-0.082-1.094,0.228-1.54
			c0.34-0.49,0.812-0.742,1.418-0.754c0.942-0.021,1.969,0.352,3.076,1.119c1.074,0.744,1.734,1.514,1.977,2.311
			c0.241,0.797,0.108,1.739-0.399,2.822l3.932,2.473c1.142-1.777,1.473-3.601,0.993-5.47c-0.479-1.87-1.904-3.625-4.276-5.267
			c-1.452-1.006-2.844-1.645-4.175-1.917c-1.33-0.273-2.558-0.178-3.684,0.282c-1.126,0.46-2.022,1.172-2.688,2.134
			c-1.035,1.495-1.332,3.165-0.891,5.008c0.313,1.31,1.317,2.926,3.012,4.849c1.316,1.496,2.144,2.475,2.484,2.939
			c0.492,0.685,0.761,1.274,0.806,1.77c0.045,0.495-0.088,0.966-0.396,1.412c-0.482,0.696-1.216,1.089-2.198,1.178
			c-0.983,0.088-2.089-0.292-3.317-1.143c-1.16-0.802-1.881-1.733-2.157-2.791c-0.28-1.057-0.101-2.286,0.539-3.687l-3.963-2.209
			c-1.214,2.287-1.563,4.426-1.047,6.416c0.516,1.991,1.969,3.813,4.358,5.466c1.641,1.136,3.171,1.855,4.59,2.157
			c1.418,0.302,2.755,0.188,4.011-0.341C301.433,69.498,302.435,68.692,303.184,67.609z M310.144,82.462l5.049-2.317l6.453,6.539
			l-2.307,5.096l3.548,3.592l9.894-22.695l-3.448-3.492l-22.646,9.774L310.144,82.462z M327.2,74.658l-3.844,8.245l-4.406-4.463
			L327.2,74.658z M326.969,100.877l12.065-8.891l-6.569,16.35l2.763,3.749l18.504-13.633l-2.56-3.471l-12.355,9.105l6.775-16.678
			l-2.678-3.635l-18.503,13.634L326.969,100.877z M341.982,123.94c0.808,1.512,1.595,2.643,2.362,3.394
			c1.034,1,2.085,1.672,3.154,2.013c1.415,0.453,2.995,0.539,4.742,0.259c1.43-0.23,2.978-0.791,4.646-1.682
			c1.899-1.014,3.379-2.088,4.438-3.222c1.059-1.134,1.809-2.365,2.251-3.69c0.44-1.326,0.519-2.676,0.234-4.053
			c-0.214-1.023-0.772-2.378-1.673-4.065l-3.995-7.482l-20.274,10.825L341.982,123.94z M356.899,111.335l0.981,1.84
			c0.893,1.668,1.426,2.823,1.603,3.463c0.241,0.854,0.261,1.656,0.057,2.404c-0.204,0.75-0.652,1.486-1.345,2.211
			c-0.69,0.724-1.819,1.504-3.388,2.342c-1.566,0.837-2.879,1.359-3.935,1.568c-1.056,0.208-1.899,0.199-2.528-0.027
			c-0.632-0.227-1.206-0.627-1.727-1.203c-0.4-0.438-0.904-1.229-1.516-2.373l-1.633-3.056L356.899,111.335z M353.073,149.631
			l8.296-2.517l0.878,2.896c0.611,2.011,1.182,3.514,1.714,4.51c0.406,0.729,0.986,1.391,1.741,1.987
			c0.754,0.595,1.666,0.999,2.734,1.21c1.07,0.21,2.278,0.111,3.628-0.298c1.751-0.531,3.049-1.389,3.896-2.575
			c0.848-1.186,1.246-2.458,1.192-3.818c-0.028-0.887-0.452-2.681-1.271-5.381l-2.162-7.126l-21.994,6.673L353.073,149.631z
			 M371.347,144.087l0.651,2.146c0.485,1.601,0.759,2.68,0.818,3.241c0.088,0.76-0.055,1.454-0.434,2.082
			c-0.378,0.628-0.966,1.063-1.766,1.306c-0.65,0.197-1.272,0.203-1.863,0.017c-0.592-0.187-1.092-0.54-1.501-1.06
			c-0.409-0.521-0.879-1.656-1.409-3.407l-0.738-2.43L371.347,144.087z M358.41,170.384l9.93-1.547l1.4,8.984l-9.931,1.547
			l0.715,4.584l22.71-3.538l-0.715-4.586l-8.938,1.393l-1.401-8.984l8.938-1.393l-0.714-4.585l-22.709,3.539L358.41,170.384z
			 M360.923,193.258L383.872,192l-0.254-4.634l-22.949,1.259L360.923,193.258z M361.19,197.828l-0.532,16.17l3.871,0.127
			l0.379-11.533l18.913,0.622l0.153-4.638L361.19,197.828z M380.13,223.008c-0.762-1.049-1.676-1.931-2.738-2.646
			c-1.447-0.96-3.324-1.641-5.631-2.039c-3.604-0.623-6.606-0.119-9.004,1.513c-2.398,1.634-3.89,4.134-4.473,7.502
			c-0.575,3.326-0.002,6.16,1.72,8.506c1.721,2.346,4.409,3.834,8.065,4.468c3.688,0.636,6.74,0.133,9.154-1.514
			c2.418-1.644,3.914-4.135,4.492-7.473c0.318-1.843,0.302-3.521-0.052-5.036C381.404,225.15,380.893,224.057,380.13,223.008z
			 M377.8,230.696c-0.327,1.884-1.228,3.285-2.701,4.202c-1.473,0.916-3.509,1.15-6.104,0.703c-2.626-0.456-4.495-1.38-5.606-2.777
			c-1.11-1.396-1.508-3.004-1.192-4.828c0.314-1.822,1.236-3.211,2.766-4.168c1.528-0.953,3.573-1.211,6.139-0.767
			c2.604,0.45,4.454,1.364,5.548,2.74C377.74,227.181,378.126,228.811,377.8,230.696z M374.728,248.795
			c-0.762-0.949-1.698-1.605-2.812-1.97c-1.728-0.567-3.411-0.378-5.053,0.568c-1.168,0.673-2.432,2.096-3.793,4.268
			c-1.06,1.687-1.765,2.76-2.111,3.218c-0.516,0.666-1.005,1.091-1.467,1.275c-0.461,0.185-0.951,0.191-1.467,0.021
			c-0.805-0.263-1.389-0.854-1.755-1.771c-0.363-0.918-0.313-2.086,0.152-3.505c0.44-1.342,1.127-2.296,2.062-2.864
			c0.935-0.567,2.164-0.745,3.688-0.53l0.99-4.428c-2.536-0.513-4.687-0.238-6.448,0.821c-1.763,1.061-3.095,2.974-4.001,5.733
			c-0.622,1.896-0.877,3.568-0.763,5.014c0.115,1.445,0.604,2.696,1.468,3.749c0.864,1.054,1.923,1.785,3.175,2.196
			c1.38,0.453,2.634,0.542,3.765,0.271c1.128-0.273,2.132-0.837,3.01-1.686c0.879-0.852,1.923-2.266,3.133-4.244
			c1.211-1.979,2.141-3.171,2.79-3.573c0.511-0.316,1.025-0.39,1.541-0.222c0.565,0.187,0.941,0.569,1.126,1.146
			c0.288,0.897,0.222,1.986-0.198,3.269c-0.406,1.241-0.959,2.091-1.653,2.551c-0.695,0.458-1.636,0.598-2.82,0.42l-1.253,4.472
			c2.029,0.589,3.872,0.389,5.528-0.604c1.656-0.991,2.934-2.855,3.834-5.597c0.551-1.68,0.767-3.195,0.649-4.548
			C375.929,250.893,375.488,249.742,374.728,248.795z M364.196,269.946c-1.108-1.336-2.712-2.525-4.807-3.571
			c-3.274-1.633-6.294-2.011-9.061-1.137c-2.767,0.876-4.912,2.842-6.438,5.9c-1.505,3.022-1.771,5.902-0.795,8.643
			c0.974,2.741,3.122,4.939,6.442,6.595c3.349,1.669,6.417,2.063,9.204,1.183c2.787-0.884,4.937-2.839,6.448-5.871
			c0.833-1.673,1.299-3.287,1.396-4.839c0.079-1.163-0.097-2.356-0.525-3.582C365.633,272.042,365.011,270.937,364.196,269.946z
			 M361.62,279.96c-0.854,1.714-2.117,2.796-3.793,3.251c-1.676,0.457-3.691,0.097-6.049-1.079
			c-2.385-1.188-3.909-2.613-4.573-4.269c-0.662-1.657-0.582-3.313,0.243-4.969c0.826-1.655,2.108-2.721,3.847-3.197
			s3.771-0.134,6.102,1.028c2.365,1.179,3.876,2.586,4.526,4.218C362.574,276.577,362.474,278.249,361.62,279.96z M334.599,288.105
			l7.12,4.946l-1.727,2.485c-1.2,1.725-2.025,3.106-2.478,4.14c-0.318,0.771-0.478,1.638-0.478,2.599s0.249,1.927,0.746,2.896
			c0.497,0.969,1.325,1.855,2.484,2.66c1.502,1.045,2.98,1.531,4.437,1.461c1.454-0.07,2.7-0.549,3.733-1.433
			c0.679-0.573,1.823-2.018,3.435-4.335l4.249-6.115l-18.875-13.116L334.599,288.105z M344.924,295.279l5.357,3.723L349,300.843
			c-0.954,1.373-1.632,2.258-2.032,2.652c-0.543,0.541-1.177,0.858-1.903,0.951c-0.728,0.094-1.433-0.099-2.12-0.576
			c-0.558-0.387-0.946-0.872-1.167-1.45c-0.222-0.58-0.255-1.191-0.1-1.836c0.154-0.644,0.753-1.717,1.797-3.218L344.924,295.279z
			 M321.625,305.18l7.382,6.82l-6.171,6.678l-7.381-6.819l-3.149,3.409l16.881,15.597l3.149-3.408l-6.645-6.139l6.172-6.679
			l6.644,6.14l3.149-3.41l-16.882-15.597L321.625,305.18z M304.094,322.361l-3.577,2.932l6.112,7.456l1.922,15.675l4.136-3.388
			l-1.666-10.393l9.948,3.604l4.206-3.449l-14.948-4.957L304.094,322.361z"/>
	</g>
</g>
<g>
	<g>
		<path fill="#FFFFFF" d="M186.571,372.134c-0.175,1.791-0.368,3.066-0.576,3.825c-0.21,0.76-0.67,1.373-1.381,1.839
			c-0.711,0.466-1.715,0.635-3.012,0.508c-1.277-0.125-2.256-0.504-2.937-1.138c-0.682-0.633-1.075-1.422-1.179-2.368
			c-0.058-0.588,0.01-1.854,0.2-3.801l1.199-12.264l-4.571-0.446l-1.182,12.077c-0.248,2.533-0.286,4.463-0.114,5.789
			c0.119,0.896,0.466,1.774,1.036,2.636c0.572,0.861,1.39,1.597,2.459,2.205c1.068,0.608,2.684,1.019,4.845,1.23
			c1.792,0.175,3.267,0.088,4.423-0.261c1.157-0.35,2.105-0.878,2.845-1.585c0.739-0.708,1.288-1.61,1.645-2.708
			c0.357-1.099,0.668-3.007,0.934-5.726l1.164-11.893l-4.572-0.447L186.571,372.134z M194.975,382.651l4.359,0.091l0.091-4.359
			l-4.36-0.091L194.975,382.651z M218.553,361.613c-0.955-1.08-2.094-1.747-3.418-1.999c-0.861-0.169-2.686-0.16-5.473,0.03
			l-7.354,0.501l1.546,22.697l4.582-0.313l-0.583-8.562l2.988-0.204c2.075-0.14,3.651-0.356,4.731-0.648
			c0.793-0.229,1.561-0.643,2.303-1.237s1.334-1.384,1.775-2.368c0.441-0.983,0.614-2.174,0.52-3.567
			C220.047,364.139,219.508,362.694,218.553,361.613z M215.053,368.128c-0.312,0.53-0.763,0.934-1.355,1.212
			c-0.593,0.279-1.793,0.48-3.6,0.603l-2.508,0.172l-0.438-6.441l2.213-0.15c1.652-0.112,2.754-0.136,3.309-0.07
			c0.753,0.084,1.389,0.378,1.91,0.882c0.521,0.503,0.813,1.168,0.867,1.994C215.498,366.999,215.365,367.6,215.053,368.128z
			 M224.633,376.612l-4.326,0.551l0.553,4.326l4.326-0.553L224.633,376.612z"/>
	</g>
</g>
</svg>
