<?xml version="1.0" encoding="utf-8"?>
<!-- Generator: Adobe Illustrator 16.0.0, SVG Export Plug-In . SVG Version: 6.00 Build 0)  -->
<!DOCTYPE svg PUBLIC "-//W3C//DTD SVG 1.1//EN" "http://www.w3.org/Graphics/SVG/1.1/DTD/svg11.dtd">
<svg version="1.1" id="Layer_1" xmlns="http://www.w3.org/2000/svg" xmlns:xlink="http://www.w3.org/1999/xlink" x="0px" y="0px"
	 width="164.831px" height="192.771px" viewBox="0 0 164.831 192.771" enable-background="new 0 0 164.831 192.771"
	 xml:space="preserve">
<path fill-rule="evenodd" clip-rule="evenodd" fill="#252525" d="M154.11,78.879l10.76-10.76l-3.971-14.82l-14.786-3.962
	c-1.038-2.001-2.168-3.953-3.388-5.849l3.92-14.63L135.796,18.01l-14.628,3.92c-1.949-1.253-3.97-2.417-6.059-3.486l-3.878-14.473
	L96.412,0L85.817,10.595c-2.349-0.118-4.687-0.121-7.006-0.01L68.378,0.163l-14.82,3.971l-3.8,14.153
	c-2.238,1.135-4.417,2.384-6.525,3.745l-14.13-3.778L18.254,29.103l3.755,14.046c-1.388,2.129-2.67,4.343-3.837,6.64l-14.038,3.77
	l-3.971,14.82l10.272,10.283c-0.132,2.458-0.135,4.903-0.015,7.329L0,96.412l3.971,14.819l14.192,3.803
	c1.121,2.201,2.351,4.345,3.69,6.419l-3.843,14.343l10.849,10.85l14.306-3.834c2.011,1.302,4.098,2.509,6.257,3.615l3.878,14.473
	l14.82,3.971l10.595-10.595c2.458,0.124,4.903,0.119,7.328-0.007l10.575,10.563l14.819-3.972l3.912-14.568
	c2.037-1.057,4.022-2.208,5.949-3.452l14.594,3.901l10.849-10.849l-3.914-14.64c1.213-1.895,2.343-3.856,3.383-5.882l14.65-3.935
	l3.971-14.819l-10.72-10.732C154.226,83.536,154.224,81.198,154.11,78.879z M134.135,96.333
	c-7.676,28.646-37.121,45.646-65.768,37.972c-28.646-7.677-45.646-37.122-37.971-65.769S67.518,22.89,96.164,30.565
	S141.811,67.687,134.135,96.333z M112.963,43.165c-7.021-6.382-17.208-9.574-30.563-9.574c-12.585,0-22.389,3.084-29.408,9.253
	c-7.021,6.169-10.53,13.324-10.53,21.464c0,4.456,1.305,8.055,3.917,10.796c2.61,2.742,5.843,4.112,9.695,4.112
	c3.423,0,6.292-1.135,8.604-3.405c2.312-2.27,3.467-5.119,3.467-8.547c0-3.684-1.499-8.182-4.495-13.495
	c-1.284-2.398-1.926-4.155-1.926-5.27c0-1.627,0.983-3.213,2.954-4.756c2.482-1.97,5.606-2.955,9.375-2.955
	c4.88,0,9.118,2.164,12.713,6.49c3.596,4.327,5.394,11.117,5.394,20.37c0,5.912-0.578,10.883-1.734,14.909
	c-1.155,4.028-3.531,9.361-7.127,16.001c-3.596,6.641-5.823,11.868-6.678,15.68c-0.857,3.813-1.242,9.532-1.156,17.158h4.238
	c0.514-7.282,1.862-12.702,4.045-16.259c2.184-3.554,6.698-7.603,13.548-12.146c10.274-6.768,17.208-12.937,20.804-18.507
	c3.595-5.568,5.393-11.609,5.393-18.122C123.494,57.283,119.982,49.549,112.963,43.165z M82.257,162.086
	c-8.473,0-15.342,6.87-15.342,15.343c0,8.474,6.869,15.343,15.342,15.343S97.6,185.902,97.6,177.429
	C97.6,168.956,90.73,162.086,82.257,162.086z"/>
</svg>
